<?xml version="1.0" encoding="UTF-8" standalone="no"?>
<!-- Created with Inkscape (http://www.inkscape.org/) -->

<svg
   xmlns:dc="http://purl.org/dc/elements/1.1/"
   xmlns:cc="http://creativecommons.org/ns#"
   xmlns:rdf="http://www.w3.org/1999/02/22-rdf-syntax-ns#"
   xmlns:svg="http://www.w3.org/2000/svg"
   xmlns="http://www.w3.org/2000/svg"
   xmlns:sodipodi="http://sodipodi.sourceforge.net/DTD/sodipodi-0.dtd"
   xmlns:inkscape="http://www.inkscape.org/namespaces/inkscape"
   width="210mm"
   height="297mm"
   viewBox="0 0 744.09448819 1052.3622047"
   id="svg2"
   version="1.1"
   inkscape:version="0.91 r13725"
   sodipodi:docname="dessin.svg"
   inkscape:export-filename="D:\A372838\perso\path4181-9.png"
   inkscape:export-xdpi="7.4577332"
   inkscape:export-ydpi="7.4577332">
  <defs
     id="defs4" />
  <sodipodi:namedview
     id="base"
     pagecolor="#ffffff"
     bordercolor="#666666"
     borderopacity="1.0"
     inkscape:pageopacity="0.0"
     inkscape:pageshadow="2"
     inkscape:zoom="0.12374369"
     inkscape:cx="223.62422"
     inkscape:cy="532.57117"
     inkscape:document-units="px"
     inkscape:current-layer="layer1"
     showgrid="false"
     showguides="false"
     inkscape:window-width="945"
     inkscape:window-height="522"
     inkscape:window-x="936"
     inkscape:window-y="438"
     inkscape:window-maximized="0" />
  <metadata
     id="metadata7">
    <rdf:RDF>
      <cc:Work
         rdf:about="">
        <dc:format>image/svg+xml</dc:format>
        <dc:type
           rdf:resource="http://purl.org/dc/dcmitype/StillImage" />
        <dc:title />
      </cc:Work>
    </rdf:RDF>
  </metadata>
  <g
     inkscape:label="Calque 1"
     inkscape:groupmode="layer"
     id="layer1">
    <path
       style="fill:#331111;fill-opacity:1;fill-rule:evenodd;stroke:#000000;stroke-width:1px;stroke-linecap:butt;stroke-linejoin:miter;stroke-opacity:1"
       d="m 164.28572,762.36221 35.79647,-25.71579 26.26998,26.30254 19.39197,-26.97692 27.8282,25.29421 27.41981,-39.72201 31.25927,38.34619 25.03978,-35.65395 24.93667,24.61787 18.25304,-37.57569 18.28164,30.49445 19.58929,-16.53998 30.54833,45.72643 12.17694,-26.2773 33.20861,40.53709 -55.23637,-155.9091 7.07104,-43.58327 -189.89073,-37.38019 z"
       id="path4157"
       inkscape:connector-curvature="0"
       sodipodi:nodetypes="ccccccccccccccccccc" />
    <path
       style="fill:#393939;fill-opacity:1;fill-rule:evenodd;stroke:#000000;stroke-width:1px;stroke-linecap:butt;stroke-linejoin:miter;stroke-opacity:1"
       d="m 311.87673,462.1171 -17.16572,248.0748 c -8.96582,77.3788 -28.54857,231.9252 -28.54857,231.9252 l 38.57143,2.85714 c 0,0 14.8456,-158.06938 15.89227,-231.4972 L 343.3053,457.83139 Z"
       id="path4140"
       inkscape:connector-curvature="0"
       sodipodi:nodetypes="ccccccc" />
    <path
       style="fill:#eae2d7;fill-opacity:1;fill-rule:evenodd;stroke:#000000;stroke-width:1px;stroke-linecap:butt;stroke-linejoin:miter;stroke-opacity:1"
       d="m 486.09258,507.88998 12.57615,33.96267 41.67623,-9.24981 -11.65801,-21.33746 -16.19298,-12.46677 z"
       id="path4228"
       inkscape:connector-curvature="0"
       sodipodi:nodetypes="cccccc" />
    <path
       style="fill:#393939;fill-opacity:1;fill-rule:evenodd;stroke:#000000;stroke-width:1px;stroke-linecap:butt;stroke-linejoin:miter;stroke-opacity:1"
       d="m 370.72641,288.37896 57.94323,112.5717 50.55026,112.03635 46.2545,-10.52936 -78.80998,-107.38663 -60.04653,-118.84828 -13.63249,-1.0059 z"
       id="path4165-5"
       inkscape:connector-curvature="0"
       sodipodi:nodetypes="cccccccc" />
    <path
       style="fill:#393939;fill-opacity:1;fill-rule:evenodd;stroke:#000000;stroke-width:1px;stroke-linecap:butt;stroke-linejoin:miter;stroke-opacity:1"
       d="m 373.30852,470.86061 35.51259,246.11912 18.05332,213.29042 2.92795,19.44141 38.30702,-5.33767 0.0821,-22.29292 -33.34505,-207.35266 -31.71891,-254.68206 z"
       id="path4140-0"
       inkscape:connector-curvature="0"
       sodipodi:nodetypes="ccccccccc" />
    <g
       id="g4189"
       style="fill:#9d3333;fill-opacity:1">
      <path
         sodipodi:nodetypes="ccccccccccccccccc"
         inkscape:connector-curvature="0"
         id="path4136"
         d="m 302.03561,415.46103 -15.41463,12.1074 -15.0212,34.3919 -160.58673,325.5922 45.4128,-10.74808 -7.82653,50.27245 43.60447,-33.41265 20.64507,69.66427 27.39551,-175.56372 70.22499,-78.06404 100.11538,11.78335 64.08897,-29.58514 -20.44824,-113.81806 -19.85298,-62.28885 -10.10842,-7.90718 -37.00642,24.63379 z"
         style="fill:#9d3333;fill-opacity:1;fill-rule:evenodd;stroke:#000000;stroke-width:1px;stroke-linecap:butt;stroke-linejoin:miter;stroke-opacity:1" />
      <path
         sodipodi:nodetypes="cccccccccccc"
         inkscape:connector-curvature="0"
         id="path4138"
         d="m 296.94026,419.45042 -9.08614,-17.73046 23.98978,-45.34818 -33.48887,-80.88939 15.63227,-33.24002 84.81645,-11.36067 32.72344,56.7081 -14.46805,70.69491 30.92161,41.242 -10.38956,21.95635 -38.80659,28.33159 z"
         style="fill:#9d3333;fill-opacity:1;fill-rule:evenodd;stroke:#000000;stroke-width:1px;stroke-linecap:butt;stroke-linejoin:miter;stroke-opacity:1" />
    </g>
    <path
       style="fill:#eae2d7;fill-opacity:1;fill-rule:evenodd;stroke:#000000;stroke-width:1px;stroke-linecap:butt;stroke-linejoin:miter;stroke-opacity:1"
       d="m 232.41979,510.14274 -13.62377,34.34513 37.8607,20.12154 5.4162,-23.70361 -1.91704,-19.51305 z"
       id="path4228-3"
       inkscape:connector-curvature="0"
       sodipodi:nodetypes="cccccc" />
    <path
       style="fill:#393939;fill-opacity:1;fill-rule:evenodd;stroke:#000000;stroke-width:1px;stroke-linecap:butt;stroke-linejoin:miter;stroke-opacity:1"
       d="m 291.25525,266.85712 -69.11239,124.7908 1.42857,124.28571 c 0,0 47.14286,10.71429 47.14286,7.85714 0,-2.85714 -27.85715,-130.71428 -27.85715,-130.71428 l 67.02031,-118.90319 -6.18822,-12.18862 z"
       id="path4165"
       inkscape:connector-curvature="0"
       sodipodi:nodetypes="cccscccc" />
    <path
       style="fill:#eae2d7;fill-opacity:1;fill-rule:evenodd;stroke:#000000;stroke-width:1px;stroke-linecap:butt;stroke-linejoin:miter;stroke-opacity:1"
       d="m 296.2198,186.1564 c 2.52538,1.51523 27.77919,37.88072 27.77919,37.88072 l 32.32488,1.51523 18.75769,-39.7838 3.22057,-43.763 -21.97826,-36.66135 -58.08377,7.57614 -14.14213,47.47717 z"
       id="path4161"
       inkscape:connector-curvature="0"
       sodipodi:nodetypes="ccccccccc" />
    <g
       id="g4210">
      <path
         sodipodi:nodetypes="ccccccccccccccc"
         inkscape:connector-curvature="0"
         id="path4159"
         d="m 395.94452,251.85713 -12.89324,25.70415 -80.90842,-12.34193 -78.40175,33.78092 -38.24683,82.32638 -105.427591,100.17408 -25.69326,-120.71429 108.259991,-17.20356 72.58518,-80.1559 47.75954,-61.86994 31.86777,9.58144 42.99406,-2.93849 19.58389,-10.37731 22.17875,28.00943 z"
         style="fill:#1f5e5e;fill-opacity:1;fill-rule:evenodd;stroke:#000000;stroke-width:1px;stroke-linecap:butt;stroke-linejoin:miter;stroke-opacity:1" />
    </g>
    <path
       style="fill:#f3f3f3;fill-opacity:1;fill-rule:evenodd;stroke:#000000;stroke-width:1px;stroke-linecap:butt;stroke-linejoin:miter;stroke-opacity:1"
       d="m 379.57647,126.9648 17.1535,8.17888 -15.80889,-24.20665 24.90992,3.2192 -41.64412,-22.475461 -32.4319,-9.358928 -47.28936,5.171367 -15.60477,24.800822 -18.8534,40.08835 14.09046,-9.4429 -1.80487,21.28942 25.84554,41.1204 32.23822,12.64793 -19.67379,-35.72281 -1.25263,-32.03562 15.96232,19.75516 0.50507,-39.90103 19.05548,21.26397 16.02502,-20.25382 8.66681,23.07505 8.78063,-24.0852 14.14213,45.45686 z"
       id="path4163"
       inkscape:connector-curvature="0"
       sodipodi:nodetypes="ccccccccccccccccccccccc" />
    <path
       style="fill:#212121;fill-opacity:1;fill-rule:evenodd;stroke:#000000;stroke-width:1px;stroke-linecap:butt;stroke-linejoin:miter;stroke-opacity:1"
       d="m 270,838.07648 -14.28571,147.14287 103.28495,1.19092 3.8579,-15.47664 -51.42857,-22.85714 10,-108.57143 z"
       id="path4181"
       inkscape:connector-curvature="0"
       sodipodi:nodetypes="ccccccc" />
    <path
       style="fill:#212121;fill-opacity:1;fill-rule:evenodd;stroke:#000000;stroke-width:1px;stroke-linecap:butt;stroke-linejoin:miter;stroke-opacity:1"
       d="m 407.83894,831.05658 10,148.57143 111.85637,-0.23765 3.8579,-15.47664 -59.99999,-25.71428 -11.42857,-105.71428 z"
       id="path4181-9"
       inkscape:connector-curvature="0"
       sodipodi:nodetypes="ccccccc" />
    <path
       style="fill:#1f5e5e;fill-opacity:1;fill-rule:evenodd;stroke:#000000;stroke-width:1px;stroke-linecap:butt;stroke-linejoin:miter;stroke-opacity:1"
       d="m 322.90371,165.23771 c 8.84287,-5.15783 16.41784,-3.77297 23.20861,1.65857 -8.39865,2.19825 -16.23606,2.06572 -23.20861,-1.65857 z"
       id="path4172"
       inkscape:connector-curvature="0"
       sodipodi:nodetypes="ccc" />
    <path
       style="fill:#1f5e5e;fill-opacity:1;fill-rule:evenodd;stroke:#000000;stroke-width:1px;stroke-linecap:butt;stroke-linejoin:miter;stroke-opacity:1"
       d="m 359.38571,166.622 c 6.88386,-7.57707 10.23168,-8.02781 18.34093,-4.88834 -7.34967,4.62082 -10.57142,6.34486 -18.34093,4.88834 z"
       id="path4172-3"
       inkscape:connector-curvature="0"
       sodipodi:nodetypes="ccc" />
    <path
       style="fill:#123636;fill-opacity:1;fill-rule:evenodd;stroke:#000000;stroke-width:1px;stroke-linecap:butt;stroke-linejoin:miter;stroke-opacity:1"
       d="M 223.74111,299.00027 185.49428,381.32665 80.066689,481.50073 54.373429,360.78644 162.63342,343.58288 Z"
       id="path4159-5"
       inkscape:connector-curvature="0"
       sodipodi:nodetypes="cccccc" />
  </g>
</svg>
